custom-analysis
version=1
nRows=6
nColumns=98
inDegrees=no

This file contains tibia displacement and acting force.

Units are S.I. units (seconds, meters, Newtons, ...)
Angles are in degrees.

endheader
time	APT	SIT	knee_angle	aACL_R_force	pACL_R_force	aPCL_R_force	pPCL_R_force	aMCL_R_force	mMCL_R_force	pMCL_R_force	aLCL_R_force	mLCL_R_force	pLCL_R_force	aPCL_L_force	pPCL_L_force	aMCL_L_force	aLCL_L_force	aACL_R_length	pACL_R_length	aPCL_R_length	pPCL_R_length	aMCL_R_length	mMCL_R_length	pMCL_R_length	aLCL_R_length	mLCL_R_length	pLCL_R_length	aPCL_L_length	pPCL_L_length	aMCL_L_length	aLCL_L_length	aACL_R_strain	pACL_R_strain	aPCL_R_strain	pPCL_R_strain	aMCL_R_strain	mMCL_R_strain	pMCL_R_strain	aLCL_R_strain	mLCL_R_strain	pLCL_R_strain	aPCL_L_strain	pPCL_L_strain	aMCL_L_strain	aLCL_L_strain	femur_lat_meniscii_r.femur_lat_r.force.X	femur_lat_meniscii_r.femur_lat_r.force.Y	femur_lat_meniscii_r.femur_lat_r.force.Z	femur_lat_meniscii_r.femur_lat_r.torque.X	femur_lat_meniscii_r.femur_lat_r.torque.Y	femur_lat_meniscii_r.femur_lat_r.torque.Z	femur_lat_meniscii_r.meniscus_lat_r.force.X	femur_lat_meniscii_r.meniscus_lat_r.force.Y	femur_lat_meniscii_r.meniscus_lat_r.force.Z	femur_lat_meniscii_r.meniscus_lat_r.torque.X	femur_lat_meniscii_r.meniscus_lat_r.torque.Y	femur_lat_meniscii_r.meniscus_lat_r.torque.Z	femur_med_meniscii_r.femur_med_r.force.X	femur_med_meniscii_r.femur_med_r.force.Y	femur_med_meniscii_r.femur_med_r.force.Z	femur_med_meniscii_r.femur_med_r.torque.X	femur_med_meniscii_r.femur_med_r.torque.Y	femur_med_meniscii_r.femur_med_r.torque.Z	femur_med_meniscii_r.meniscus_med_r.force.X	femur_med_meniscii_r.meniscus_med_r.force.Y	femur_med_meniscii_r.meniscus_med_r.force.Z	femur_med_meniscii_r.meniscus_med_r.torque.X	femur_med_meniscii_r.meniscus_med_r.torque.Y	femur_med_meniscii_r.meniscus_med_r.torque.Z	femur_med_tibia_r.tibia_upper_r.force.X	femur_med_tibia_r.tibia_upper_r.force.Y	femur_med_tibia_r.tibia_upper_r.force.Z	femur_med_tibia_r.tibia_upper_r.torque.X	femur_med_tibia_r.tibia_upper_r.torque.Y	femur_med_tibia_r.tibia_upper_r.torque.Z	femur_med_tibia_r.femur_med_r.force.X	femur_med_tibia_r.femur_med_r.force.Y	femur_med_tibia_r.femur_med_r.force.Z	femur_med_tibia_r.femur_med_r.torque.X	femur_med_tibia_r.femur_med_r.torque.Y	femur_med_tibia_r.femur_med_r.torque.Z	femur_lat_tibia_r.tibia_upper_r.force.X	femur_lat_tibia_r.tibia_upper_r.force.Y	femur_lat_tibia_r.tibia_upper_r.force.Z	femur_lat_tibia_r.tibia_upper_r.torque.X	femur_lat_tibia_r.tibia_upper_r.torque.Y	femur_lat_tibia_r.tibia_upper_r.torque.Z	femur_lat_tibia_r.femur_lat_r.force.X	femur_lat_tibia_r.femur_lat_r.force.Y	femur_lat_tibia_r.femur_lat_r.force.Z	femur_lat_tibia_r.femur_lat_r.torque.X	femur_lat_tibia_r.femur_lat_r.torque.Y	femur_lat_tibia_r.femur_lat_r.torque.Z	femur_lat_meniscii_force_r	femur_med_meniscii_force_r	femur_lat_tibia_force_r	femur_med_tibia_force_r
      0.16699305	      0.01296684	      0.01779193	     58.27182588	     -4.30151677	      0.00000000	    605.95156998	    390.47192227	      0.00000000	      0.00000000	      0.00000000	      0.00000000	      0.00000000	      0.00000000	      0.00000000	      0.00000000	      0.00000001	      0.00000000	      0.03112279	      0.02385710	      0.03510759	      0.03252964	      0.05967162	      0.05924128	      0.05627131	      0.05240562	      0.04761819	      0.04271259	      0.01525851	      0.01651186	      0.06550154	      0.04489616	      0.00378289	     -0.04795152	      0.12903214	      0.08839190	     -0.00592037	     -0.00923545	     -0.04183159	     -0.06380420	     -0.15448550	     -0.18398188	      0.00000079	     -0.32847694	      0.00000060	     -0.00000086	    103.44149170	    167.30727500	     19.76059734	    -11.98820440	      2.50501336	     40.57824760	   -103.44149170	   -167.30727500	    -19.76059734	      4.61123495	     -3.08285801	      2.93067687	     24.00717176	     19.35984641	     10.54433842	     -3.81158054	     -0.54191104	      9.63332369	    -24.00717176	    -19.35984641	    -10.54433842	     -0.23436289	      0.28244615	      0.05480041	   -797.14023938	   -695.49266421	    226.13070808	    -15.94024342	     17.90472406	     -1.12654700	    797.14023938	    695.49266421	   -226.13070808	    104.44880664	    -14.39626172	    323.92148143	      0.00000000	      0.00000000	      0.00000000	      0.00000000	      0.00000000	      0.00000000	      0.00000000	      0.00000000	      0.00000000	      0.00000000	      0.00000000	      0.00000000	    197.69255848	     32.59341991	      0.00000000	   1081.79374390
      0.16723783	      0.01298121	      0.01783930	     58.40396987	     -4.26482100	      0.00000000	    608.43133993	    391.73508300	      0.00000000	      0.00000000	      0.00000000	      0.00000000	      0.00000000	      0.00000000	      0.00000000	      0.00000000	      0.00000001	      0.00000000	      0.03112005	      0.02385588	      0.03512193	      0.03253804	      0.05968401	      0.05924395	      0.05626780	      0.05239653	      0.04760356	      0.04269517	      0.01525851	      0.01651186	      0.06550154	      0.04489616	      0.00369440	     -0.04800026	      0.12949332	      0.08867291	     -0.00571387	     -0.00919084	     -0.04189142	     -0.06396660	     -0.15474533	     -0.18431477	      0.00000079	     -0.32847694	      0.00000060	     -0.00000086	    104.85375453	    166.02753309	     19.55705981	    -11.86437064	      2.54250553	     41.16938608	   -104.85375453	   -166.02753309	    -19.55705981	      4.56399560	     -3.11955742	      2.86986333	     24.10936071	     19.34824683	     10.44712684	     -3.77225969	     -0.54321337	      9.67243499	    -24.10936071	    -19.34824683	    -10.44712684	     -0.23643547	      0.28507543	      0.05670831	   -800.03373324	   -694.70536494	    227.05886908	    -15.93077496	     17.98228508	     -1.11898632	    800.03373324	    694.70536494	   -227.05886908	    104.80806705	    -14.45183072	    325.07663514	      0.00000000	      0.00000000	      0.00000000	      0.00000000	      0.00000000	      0.00000000	      0.00000000	      0.00000000	      0.00000000	      0.00000000	      0.00000000	      0.00000000	    197.33709781	     32.63063573	      0.00000000	   1083.61674425
      0.16744923	      0.01299353	      0.01788023	     58.51809739	     -4.24283031	      0.00000000	    610.58395062	    392.86532989	      0.00000000	      0.00000000	      0.00000000	      0.00000000	      0.00000000	      0.00000000	      0.00000000	      0.00000000	      0.00000001	      0.00000000	      0.03111769	      0.02385485	      0.03513430	      0.03254529	      0.05969472	      0.05924628	      0.05626483	      0.05238862	      0.04759089	      0.04268011	      0.01525851	      0.01651186	      0.06550154	      0.04489616	      0.00361844	     -0.04804117	      0.12989086	      0.08891564	     -0.00553544	     -0.00915178	     -0.04194195	     -0.06410783	     -0.15497037	     -0.18460251	      0.00000079	     -0.32847694	      0.00000060	     -0.00000086	    105.05033940	    166.67964364	     19.82979145	    -11.99318353	      2.54792823	     41.23648476	   -105.05033940	   -166.67964364	    -19.82979145	      4.58830856	     -3.13215204	      2.90229741	     24.10284465	     19.17706006	     10.36922002	     -3.74443360	     -0.54249707	      9.66970844	    -24.10284465	    -19.17706006	    -10.36922002	     -0.23468012	      0.28553344	      0.05481921	   -802.27357850	   -694.36604648	    227.19704187	    -15.90882263	     18.02440291	     -1.09628592	    802.27357850	    694.36604648	   -227.19704187	    104.84866206	    -14.48853529	    325.96525897	      0.00000000	      0.00000000	      0.00000000	      0.00000000	      0.00000000	      0.00000000	      0.00000000	      0.00000000	      0.00000000	      0.00000000	      0.00000000	      0.00000000	    198.01741853	     32.49965348	      0.00000000	   1085.08322128
      0.16768701	      0.01300730	      0.01792629	     58.64648396	     -4.18284117	      0.00000000	    612.97492795	    394.06770751	      0.00000000	      0.00000000	      0.00000000	      0.00000000	      0.00000000	      0.00000000	      0.00000000	      0.00000000	      0.00000001	      0.00000000	      0.03111507	      0.02385374	      0.03514817	      0.03255345	      0.05970678	      0.05924895	      0.05626157	      0.05237967	      0.04757659	      0.04266315	      0.01525851	      0.01651186	      0.06550154	      0.04489616	      0.00353390	     -0.04808550	      0.13033700	      0.08918849	     -0.00533457	     -0.00910718	     -0.04199750	     -0.06426773	     -0.15522420	     -0.18492646	      0.00000079	     -0.32847694	      0.00000060	     -0.00000086	    105.48576749	    167.13939556	     20.00181636	    -12.07774690	      2.55791992	     41.40293927	   -105.48576749	   -167.13939556	    -20.00181636	      4.60698588	     -3.14772323	      2.92495150	     24.21216005	     18.98251786	     10.21643916	     -3.68792181	     -0.54427636	      9.71323513	    -24.21216005	    -18.98251786	    -10.21643916	     -0.23272494	      0.28983615	      0.05114960	   -804.49938490	   -693.94258123	    227.84180768	    -15.89633624	     18.08154234	     -1.06451751	    804.49938490	    693.94258123	   -227.84180768	    105.09573318	    -14.52879469	    326.84433641	      0.00000000	      0.00000000	      0.00000000	      0.00000000	      0.00000000	      0.00000000	      0.00000000	      0.00000000	      0.00000000	      0.00000000	      0.00000000	      0.00000000	    198.65270536	     32.41820951	      0.00000000	   1086.59443017
      0.16790006	      0.01301958	      0.01796756	     58.76152211	     -4.13090695	      0.00000000	    615.10540075	    395.13097373	      0.00000000	      0.00000000	      0.00000000	      0.00000000	      0.00000000	      0.00000000	      0.00000000	      0.00000000	      0.00000001	      0.00000000	      0.03111276	      0.02385279	      0.03516056	      0.03256074	      0.05971759	      0.05925137	      0.05625871	      0.05237160	      0.04756375	      0.04264794	      0.01525851	      0.01651186	      0.06550154	      0.04489616	      0.00345928	     -0.04812347	      0.13073551	      0.08943250	     -0.00515445	     -0.00906667	     -0.04204614	     -0.06441199	     -0.15545227	     -0.18521701	      0.00000079	     -0.32847694	      0.00000060	     -0.00000086	    105.64203597	    167.15208625	     20.06729407	    -12.10612434	      2.56100877	     41.45998721	   -105.64203597	   -167.15208625	    -20.06729407	      4.60997480	     -3.15357671	      2.93849848	     24.29316667	     18.86681422	     10.11405967	     -3.64957401	     -0.54582935	      9.74522092	    -24.29316667	    -18.86681422	    -10.11405967	     -0.23193321	      0.29295596	      0.04956181	   -807.10409112	   -692.23075284	    228.10511770	    -15.85521837	     18.13179540	     -1.09426370	    807.10409112	    692.23075284	   -228.10511770	    105.16355710	    -14.57154195	    327.89816550	      0.00000000	      0.00000000	      0.00000000	      0.00000000	      0.00000000	      0.00000000	      0.00000000	      0.00000000	      0.00000000	      0.00000000	      0.00000000	      0.00000000	    198.75300247	     32.37914188	      0.00000000	   1087.48902238
      0.16814449	      0.01303358	      0.01801494	     58.89352241	     -4.10340380	      0.00000000	    617.56853211	    396.42298082	      0.00000000	      0.00000000	      0.00000000	      0.00000000	      0.00000000	      0.00000000	      0.00000000	      0.00000000	      0.00000001	      0.00000000	      0.03111013	      0.02385174	      0.03517474	      0.03256910	      0.05973000	      0.05925419	      0.05625551	      0.05236226	      0.04754896	      0.04263047	      0.01525851	      0.01651186	      0.06550154	      0.04489616	      0.00337458	     -0.04816519	      0.13119157	      0.08971220	     -0.00494775	     -0.00901962	     -0.04210071	     -0.06457873	     -0.15571481	     -0.18555082	      0.00000079	     -0.32847694	      0.00000060	     -0.00000086	    106.69201888	    166.30362140	     20.05477186	    -12.08141421	      2.58195876	     41.89439621	   -106.69201888	   -166.30362140	    -20.05477186	      4.58866247	     -3.17722544	      2.90351128	     24.60577363	     18.86281380	     10.04215000	     -3.61949646	     -0.55501144	      9.87414994	    -24.60577363	    -18.86281380	    -10.04215000	     -0.23451241	      0.30262874	      0.04320019	   -809.79539026	   -690.22346782	    227.15167705	    -15.77632916	     18.14385906	     -1.12051293	    809.79539026	    690.22346782	   -227.15167705	    104.72404784	    -14.60123526	    328.98362013	      0.00000000	      0.00000000	      0.00000000	      0.00000000	      0.00000000	      0.00000000	      0.00000000	      0.00000000	      0.00000000	      0.00000000	      0.00000000	      0.00000000	    198.60079370	     32.58979315	      0.00000000	   1088.01419752
